<?xml version="1.0" encoding="UTF-8"?>
<svg id="Layer_2" data-name="Layer 2" xmlns="http://www.w3.org/2000/svg" version="1.1" viewBox="0 0 227.8 54.8">
  <defs>
    <style>
      .cls-1 {
        fill: #231f20;
        stroke-width: 0px;
      }
    </style>
  </defs>
  <path class="cls-1" d="M37.1,12.2c0,2.6-.8,4.9-2.4,6.9s-3.8,3.5-6.5,4.6-5.6,1.6-8.9,1.6h-4.3l-3.5,11.7c-.2.5-.2,1-.2,1.6s.2,1.1.6,1.4c.4.3,1.1.4,2,.4h2.1l-.4,1.4H0l.4-1.4h1c1,0,1.8-.2,2.4-.6.6-.4,1-1.2,1.4-2.4L14.1,7.7c.2-.7.3-1.3.3-1.7,0-.6-.2-1.1-.6-1.4s-1.1-.4-2-.4h-.9l.4-1.4h14.3c3.5,0,6.3.8,8.4,2.6,2.1,1.7,3.2,4,3.2,6.8ZM25.3,22.4c1.7-1,3.1-2.4,4.1-4.2s1.5-3.9,1.5-6.2-.5-4.2-1.6-5.6-2.5-2.1-4.3-2.1-2.5.1-3.6.4l-5.9,19.3h4.2c2,0,3.9-.5,5.6-1.5Z"/>
  <path class="cls-1" d="M38.5,35.5c-1.2-2.2-1.8-4.7-1.8-7.5s.6-5.4,1.8-7.6,2.8-3.9,4.7-5c2-1.2,4-1.7,6.2-1.7s4.3.6,6.3,1.7,3.5,2.8,4.7,5,1.8,4.7,1.8,7.6-.6,5.3-1.8,7.5-2.8,3.8-4.7,5-4.1,1.8-6.4,1.8-4.3-.6-6.3-1.8-3.5-2.8-4.7-5ZM56,28.1c0-4.2-.6-7.5-1.8-9.7-1.2-2.2-2.8-3.3-4.7-3.3s-3.5,1.1-4.7,3.3-1.8,5.4-1.8,9.7.6,7.2,1.7,9.5,2.7,3.3,4.7,3.3,3.6-1.1,4.7-3.3c1.2-2.2,1.7-5.4,1.7-9.4Z"/>
  <path class="cls-1" d="M85.3,17c0,1-.3,1.8-.9,2.4s-1.3,1-2.2,1-1,0-1.3-.3-.7-.5-1.1-.9c-.3-.3-.6-.6-.8-.7s-.6-.2-1-.2c-.7,0-1.3.4-1.9,1.1-.5.7-.9,1.6-1.3,2.6v14.9c0,1.2.3,2.1.8,2.6s1.6.8,3.2.8v1.4h-12.9v-1.4c2,0,2.9-1.2,2.9-3.5v-14.9c0-2.3-1-3.5-2.9-3.7v-1.3l8.1-3.2h.8v5.3c.9-1.6,2-2.9,3.2-3.9s2.6-1.5,3.8-1.5,1.8.3,2.5.9,1,1.4,1,2.4h0Z"/>
  <path class="cls-1" d="M89.6,34.5v-18.1h-2.6v-1.1l7.9-8.2h.7v7.1h6.8l-.8,2.2h-6v18.1c0,1.4.3,2.4.8,3s1.3,1,2.3,1c1.6,0,2.8-.8,3.4-2.3h1.1c-.4,2-1.2,3.5-2.4,4.5s-2.7,1.6-4.5,1.6-3.9-.7-5-2-1.7-3.3-1.7-5.8Z"/>
  <path class="cls-1" d="M106.3,24.9v-2.6h12.9v2.6h-12.9Z"/>
  <path class="cls-1" d="M109.1,50.2c0-.8.2-1.4.7-1.9s1.1-.7,1.9-.7,1.4.2,1.8.8.7,1.2,1,2.2c.2.9.5,1.5.8,2s.7.7,1.4.7c1.2,0,2.2-.5,3-1.6.8-1.1,1.5-2.5,2.1-4.4l9.4-30.8h-5l.7-2.2h5l.4-1.3c1.2-4.2,3.1-7.4,5.5-9.6C140.1,1.1,142.8,0,145.6,0s3.3.4,4.5,1.3c1.3.9,1.9,2,1.9,3.3s-.2,1.4-.7,1.9-1.1.7-1.9.7-1.5-.3-1.8-.8-.6-1.3-.9-2.4c-.2-.9-.5-1.5-.7-1.9-.2-.4-.6-.6-1.2-.6-2,0-3.6,1.9-4.8,5.7l-2.2,7.1h5.8l-.7,2.2h-5.8l-7.9,25.9c-1.1,3.7-2.9,6.7-5.3,9s-5.1,3.5-8.1,3.5-3.4-.4-4.7-1.3-1.9-2-1.9-3.3h0Z"/>
  <path class="cls-1" d="M144.9,35.5c-1.2-2.2-1.8-4.7-1.8-7.5s.6-5.4,1.8-7.6,2.8-3.9,4.7-5,4-1.7,6.2-1.7,4.3.6,6.3,1.7,3.5,2.8,4.7,5c1.2,2.2,1.8,4.7,1.8,7.6s-.6,5.3-1.8,7.5c-1.2,2.2-2.8,3.8-4.7,5s-4.1,1.8-6.4,1.8-4.3-.6-6.3-1.8-3.5-2.8-4.7-5ZM162.4,28.1c0-4.2-.6-7.5-1.8-9.7-1.2-2.2-2.8-3.3-4.7-3.3s-3.5,1.1-4.6,3.3-1.8,5.4-1.8,9.7.6,7.2,1.7,9.5,2.7,3.3,4.7,3.3,3.6-1.1,4.7-3.3,1.7-5.4,1.7-9.4Z"/>
  <path class="cls-1" d="M174.4,39.5c.4-.6.7-1.4.7-2.5V8.8c0-1.2-.2-2.1-.7-2.7s-1.2-.9-2.2-1v-1.1l8.2-3.7h.8v36.6c0,1.1.2,2,.6,2.5s1.2.9,2.2.9v1.4h-11.9v-1.4c1.1,0,1.8-.3,2.3-.9Z"/>
  <path class="cls-1" d="M189.9,37.1v-15.4c0-2.3-1-3.5-2.9-3.7v-1.1l8.1-2.9h.8v23.1c0,1.1.2,2,.5,2.5s1.1.8,2.3.8v1.4h-11.8v-1.4c1.9,0,2.9-1.1,2.9-3.3ZM188.8,6c0-1.2.4-2.2,1.1-2.9s1.6-1.1,2.7-1.1,2.1.4,2.8,1.1,1.1,1.7,1.1,2.9-.4,2.1-1.1,2.9c-.7.7-1.7,1.1-2.8,1.1s-2-.4-2.7-1.1-1.1-1.7-1.1-2.8h0Z"/>
  <path class="cls-1" d="M203.9,35.5c-1.2-2.2-1.8-4.7-1.8-7.5s.6-5.4,1.8-7.6,2.8-3.9,4.7-5,4-1.7,6.2-1.7,4.3.6,6.3,1.7,3.5,2.8,4.7,5c1.2,2.2,1.8,4.7,1.8,7.6s-.6,5.3-1.8,7.5c-1.2,2.2-2.8,3.8-4.7,5s-4.1,1.8-6.4,1.8-4.3-.6-6.3-1.8-3.5-2.8-4.7-5ZM221.4,28.1c0-4.2-.6-7.5-1.8-9.7-1.2-2.2-2.8-3.3-4.7-3.3s-3.5,1.1-4.6,3.3-1.8,5.4-1.8,9.7.6,7.2,1.7,9.5,2.7,3.3,4.7,3.3,3.6-1.1,4.7-3.3,1.7-5.4,1.7-9.4Z"/>
</svg>