<svg xmlns="http://www.w3.org/2000/svg" version="1.1" xmlns:xlink="http://www.w3.org/1999/xlink" width="1000" height="1000"><g clip-path="url(#SvgjsClipPath1365)"><rect width="1000" height="1000" fill="#ffffff"></rect><g transform="matrix(18,0,0,18,50,50)"><svg xmlns="http://www.w3.org/2000/svg" version="1.1" xmlns:xlink="http://www.w3.org/1999/xlink" width="50" height="50"><svg id="Layer_1" data-name="Layer 1" xmlns="http://www.w3.org/2000/svg" viewBox="0 0 50 50">
  <defs>
    <style>
      .cls-1 {
        fill: #000;
        stroke-width: 0px;
      }
    </style>
  <clipPath id="SvgjsClipPath1365"><rect width="1000" height="1000" x="0" y="0" rx="250" ry="250"></rect></clipPath></defs>
  <path class="cls-1" d="M39.58,27.72l-2.76,1.25v4.72c0,1.27.05,2.63.18,3.94-2.67,2.12-6.85,3.04-10.9,3.04-9.14,0-15.67-5.78-15.67-16.26,0-9.26,5.86-15.07,16.23-15.07,3.68,0,6.74.52,9.52,1.84.11,2.25.26,4.49.53,6.72l-1.6.41c-1.29-5.18-4.66-7.18-9.25-7.18-6.35,0-10.46,4.75-10.46,13.28,0,9.84,5.12,14.48,11.11,14.48,2.16,0,4.25-.44,6.15-1.86v-8.05l-3.96-1.25v-.88h10.89v.88Z"></path>
</svg></svg></g></g></svg>